<svg width="28" height="26" viewBox="0 0 28 26" fill="none" xmlns="http://www.w3.org/2000/svg">
<path d="M26.75 24.3333L26.3028 25.2277C26.6128 25.3827 26.9809 25.3662 27.2757 25.184C27.5705 25.0018 27.75 24.6799 27.75 24.3333H26.75ZM20.8073 21.5274L20.946 20.537L20.8073 21.5274ZM22.0405 21.9786L21.5933 22.873L22.0405 21.9786ZM21.318 21.6479L20.9991 22.5957L21.318 21.6479ZM1.71322 19.1794L0.822216 19.6334L1.71322 19.1794ZM3.57054 21.0368L3.11655 21.9278L3.57054 21.0368ZM24.4295 2.12988L24.8834 1.23887L24.4295 2.12988ZM26.2868 3.9872L27.1778 3.53321L26.2868 3.9872ZM3.57054 2.12988L3.11655 1.23887L3.57054 2.12988ZM1.71322 3.9872L0.822216 3.53321L1.71322 3.9872ZM8.33333 10.5833C7.78105 10.5833 7.33333 11.031 7.33333 11.5833C7.33333 12.1356 7.78105 12.5833 8.33333 12.5833V10.5833ZM8.3475 12.5833C8.89979 12.5833 9.3475 12.1356 9.3475 11.5833C9.3475 11.031 8.89979 10.5833 8.3475 10.5833V12.5833ZM14 10.5833C13.4477 10.5833 13 11.031 13 11.5833C13 12.1356 13.4477 12.5833 14 12.5833V10.5833ZM14.0142 12.5833C14.5665 12.5833 15.0142 12.1356 15.0142 11.5833C15.0142 11.031 14.5665 10.5833 14.0142 10.5833V12.5833ZM19.6667 10.5833C19.1144 10.5833 18.6667 11.031 18.6667 11.5833C18.6667 12.1356 19.1144 12.5833 19.6667 12.5833V10.5833ZM19.6808 12.5833C20.2331 12.5833 20.6808 12.1356 20.6808 11.5833C20.6808 11.031 20.2331 10.5833 19.6808 10.5833V12.5833ZM8.05 2.66666H19.95V0.666656H8.05V2.66666ZM2.25 14.7V8.46666H0.25V14.7H2.25ZM20.0132 20.5H8.05V22.5H20.0132V20.5ZM27.1972 23.4389L22.4877 21.0842L21.5933 22.873L26.3028 25.2277L27.1972 23.4389ZM20.0132 22.5C20.439 22.5 20.558 22.5022 20.6687 22.5177L20.946 20.537C20.6657 20.4978 20.3856 20.5 20.0132 20.5V22.5ZM22.4877 21.0842C22.1546 20.9176 21.9051 20.7903 21.6369 20.7001L20.9991 22.5957C21.105 22.6313 21.2124 22.6826 21.5933 22.873L22.4877 21.0842ZM20.6687 22.5177C20.781 22.5334 20.8916 22.5595 20.9991 22.5957L21.6369 20.7001C21.4121 20.6245 21.1808 20.5699 20.946 20.537L20.6687 22.5177ZM0.25 14.7C0.25 15.8736 0.249222 16.8139 0.311224 17.5728C0.374179 18.3434 0.506804 19.0144 0.822216 19.6334L2.60423 18.7255C2.45642 18.4354 2.35743 18.0568 2.30458 17.4099C2.25078 16.7514 2.25 15.9066 2.25 14.7H0.25ZM8.05 20.5C6.84339 20.5 5.99857 20.4992 5.34004 20.4454C4.69318 20.3926 4.31463 20.2936 4.02453 20.1458L3.11655 21.9278C3.73558 22.2432 4.40664 22.3758 5.17718 22.4388C5.93604 22.5008 6.87639 22.5 8.05 22.5V20.5ZM0.822216 19.6334C1.32555 20.6213 2.1287 21.4244 3.11655 21.9278L4.02453 20.1458C3.413 19.8342 2.91582 19.337 2.60423 18.7255L0.822216 19.6334ZM19.95 2.66666C21.1566 2.66666 22.0014 2.66743 22.66 2.72124C23.3068 2.77409 23.6854 2.87307 23.9755 3.02089L24.8834 1.23887C24.2644 0.923461 23.5934 0.790836 22.8228 0.72788C22.064 0.665879 21.1236 0.666656 19.95 0.666656V2.66666ZM27.75 8.46666C27.75 7.29305 27.7508 6.3527 27.6888 5.59383C27.6258 4.8233 27.4932 4.15224 27.1778 3.53321L25.3958 4.44119C25.5436 4.73128 25.6426 5.10984 25.6954 5.7567C25.7492 6.41523 25.75 7.26004 25.75 8.46666H27.75ZM23.9755 3.02089C24.587 3.33247 25.0842 3.82966 25.3958 4.44119L27.1778 3.53321C26.6744 2.54536 25.8713 1.74221 24.8834 1.23887L23.9755 3.02089ZM8.05 0.666656C6.87639 0.666656 5.93604 0.665879 5.17718 0.72788C4.40664 0.790836 3.73558 0.923461 3.11655 1.23887L4.02453 3.02089C4.31463 2.87307 4.69318 2.77409 5.34004 2.72124C5.99857 2.66743 6.84339 2.66666 8.05 2.66666V0.666656ZM2.25 8.46666C2.25 7.26004 2.25078 6.41523 2.30458 5.7567C2.35743 5.10984 2.45642 4.73128 2.60423 4.44119L0.822216 3.53321C0.506804 4.15224 0.374179 4.8233 0.311224 5.59383C0.249222 6.3527 0.25 7.29305 0.25 8.46666H2.25ZM3.11655 1.23887C2.1287 1.74221 1.32555 2.54536 0.822216 3.53321L2.60423 4.44119C2.91582 3.82966 3.413 3.33247 4.02453 3.02089L3.11655 1.23887ZM8.33333 12.5833H8.3475V10.5833H8.33333V12.5833ZM14 12.5833H14.0142V10.5833H14V12.5833ZM19.6667 12.5833H19.6808V10.5833H19.6667V12.5833ZM25.75 8.46666V24.3333H27.75V8.46666H25.75Z" fill="#CE222C"/>
</svg>
